<mxfile host="app.diagrams.net" agent="Mozilla/5.0 (Windows NT 10.0; Win64; x64) AppleWebKit/537.36 (KHTML, like Gecko) Chrome/138.0.0.0 Safari/537.36" version="28.0.7">
  <diagram name="AU eRequesting Example Interaction Flow" id="6e3eQNzyMFhnfONmfpck">
    <mxGraphModel dx="1426" dy="743" grid="1" gridSize="10" guides="1" tooltips="1" connect="1" arrows="1" fold="1" page="1" pageScale="1" pageWidth="827" pageHeight="1169" math="0" shadow="0">
      <root>
        <mxCell id="0" />
        <mxCell id="1" parent="0" />
        <mxCell id="iweTTG_6KrEZdTRcbMwR-1" value="&lt;span style=&quot;font-size: 14px;&quot;&gt;AU eRequesting&lt;br&gt;Placer&lt;/span&gt;" style="rounded=1;arcSize=10;whiteSpace=wrap;html=1;align=center;fillColor=#00B0F0;fontColor=#FFFFFF;" parent="1" vertex="1">
          <mxGeometry x="4" y="20" width="180" height="40" as="geometry" />
        </mxCell>
        <mxCell id="iweTTG_6KrEZdTRcbMwR-2" value="&lt;span style=&quot;font-size: 14px;&quot;&gt;AU eRequesting&lt;br&gt;Server&lt;/span&gt;" style="rounded=1;arcSize=10;whiteSpace=wrap;html=1;align=center;fillColor=#00B0F0;fontColor=#FFFFFF;" parent="1" vertex="1">
          <mxGeometry x="214" y="20" width="180" height="40" as="geometry" />
        </mxCell>
        <mxCell id="iweTTG_6KrEZdTRcbMwR-3" value="&lt;span style=&quot;font-size: 14px;&quot;&gt;AU eRequesting&lt;br&gt;Filler&lt;/span&gt;" style="rounded=1;arcSize=10;whiteSpace=wrap;html=1;align=center;fillColor=#00B0F0;fontColor=#FFFFFF;" parent="1" vertex="1">
          <mxGeometry x="428.5" y="20" width="180" height="40" as="geometry" />
        </mxCell>
        <mxCell id="iweTTG_6KrEZdTRcbMwR-4" value="&lt;span style=&quot;font-size: 14px;&quot;&gt;AU eRequesting&lt;br&gt;Patient&lt;/span&gt;" style="rounded=1;arcSize=10;whiteSpace=wrap;html=1;align=center;fillColor=#00B0F0;fontColor=#FFFFFF;" parent="1" vertex="1">
          <mxGeometry x="644" y="20" width="180" height="40" as="geometry" />
        </mxCell>
        <mxCell id="iweTTG_6KrEZdTRcbMwR-5" value="" style="endArrow=none;dashed=1;html=1;rounded=0;entryX=0.5;entryY=1;entryDx=0;entryDy=0;" parent="1" source="iweTTG_6KrEZdTRcbMwR-14" target="iweTTG_6KrEZdTRcbMwR-1" edge="1">
          <mxGeometry width="50" height="50" relative="1" as="geometry">
            <mxPoint x="94" y="450" as="sourcePoint" />
            <mxPoint x="434" y="210" as="targetPoint" />
          </mxGeometry>
        </mxCell>
        <mxCell id="iweTTG_6KrEZdTRcbMwR-6" value="" style="endArrow=none;dashed=1;html=1;rounded=0;entryX=0.5;entryY=1;entryDx=0;entryDy=0;" parent="1" source="iweTTG_6KrEZdTRcbMwR-12" target="iweTTG_6KrEZdTRcbMwR-2" edge="1">
          <mxGeometry width="50" height="50" relative="1" as="geometry">
            <mxPoint x="294" y="450" as="sourcePoint" />
            <mxPoint x="293.5" y="190" as="targetPoint" />
          </mxGeometry>
        </mxCell>
        <mxCell id="iweTTG_6KrEZdTRcbMwR-7" value="" style="endArrow=none;dashed=1;html=1;rounded=0;entryX=0.5;entryY=1;entryDx=0;entryDy=0;" parent="1" source="iweTTG_6KrEZdTRcbMwR-26" target="iweTTG_6KrEZdTRcbMwR-3" edge="1">
          <mxGeometry width="50" height="50" relative="1" as="geometry">
            <mxPoint x="514" y="660" as="sourcePoint" />
            <mxPoint x="584" y="220" as="targetPoint" />
          </mxGeometry>
        </mxCell>
        <mxCell id="iweTTG_6KrEZdTRcbMwR-8" value="" style="endArrow=none;dashed=1;html=1;rounded=0;entryX=0.5;entryY=1;entryDx=0;entryDy=0;" parent="1" source="iweTTG_6KrEZdTRcbMwR-32" target="iweTTG_6KrEZdTRcbMwR-4" edge="1">
          <mxGeometry width="50" height="50" relative="1" as="geometry">
            <mxPoint x="714" y="650" as="sourcePoint" />
            <mxPoint x="664" y="400" as="targetPoint" />
          </mxGeometry>
        </mxCell>
        <mxCell id="iweTTG_6KrEZdTRcbMwR-9" value="Create ServiceRequest/Task" style="html=1;verticalAlign=bottom;endArrow=block;curved=0;rounded=0;" parent="1" source="iweTTG_6KrEZdTRcbMwR-14" target="iweTTG_6KrEZdTRcbMwR-12" edge="1">
          <mxGeometry relative="1" as="geometry">
            <mxPoint x="99" y="100" as="sourcePoint" />
            <mxPoint x="289" y="100" as="targetPoint" />
            <Array as="points">
              <mxPoint x="224" y="100" />
              <mxPoint x="254" y="100" />
            </Array>
          </mxGeometry>
        </mxCell>
        <mxCell id="iweTTG_6KrEZdTRcbMwR-10" value="return" style="html=1;verticalAlign=bottom;endArrow=open;dashed=1;endSize=8;curved=0;rounded=0;" parent="1" source="iweTTG_6KrEZdTRcbMwR-12" target="iweTTG_6KrEZdTRcbMwR-14" edge="1">
          <mxGeometry relative="1" as="geometry">
            <mxPoint x="99" y="130" as="targetPoint" />
            <mxPoint x="289" y="130" as="sourcePoint" />
            <Array as="points">
              <mxPoint x="194" y="130" />
            </Array>
          </mxGeometry>
        </mxCell>
        <mxCell id="iweTTG_6KrEZdTRcbMwR-11" value="" style="endArrow=none;dashed=1;html=1;rounded=0;entryX=0.5;entryY=1;entryDx=0;entryDy=0;" parent="1" source="iweTTG_6KrEZdTRcbMwR-18" target="iweTTG_6KrEZdTRcbMwR-12" edge="1">
          <mxGeometry width="50" height="50" relative="1" as="geometry">
            <mxPoint x="304" y="630" as="sourcePoint" />
            <mxPoint x="304" y="30" as="targetPoint" />
          </mxGeometry>
        </mxCell>
        <mxCell id="iweTTG_6KrEZdTRcbMwR-12" value="" style="html=1;points=[[0,0,0,0,5],[0,1,0,0,-5],[1,0,0,0,5],[1,1,0,0,-5]];perimeter=orthogonalPerimeter;outlineConnect=0;targetShapes=umlLifeline;portConstraint=eastwest;newEdgeStyle={&quot;curved&quot;:0,&quot;rounded&quot;:0};" parent="1" vertex="1">
          <mxGeometry x="299" y="80" width="10" height="70" as="geometry" />
        </mxCell>
        <mxCell id="iweTTG_6KrEZdTRcbMwR-13" value="" style="endArrow=none;dashed=1;html=1;rounded=0;entryX=0.5;entryY=1;entryDx=0;entryDy=0;" parent="1" source="iweTTG_6KrEZdTRcbMwR-20" target="iweTTG_6KrEZdTRcbMwR-14" edge="1">
          <mxGeometry width="50" height="50" relative="1" as="geometry">
            <mxPoint x="94" y="630" as="sourcePoint" />
            <mxPoint x="94" y="30" as="targetPoint" />
          </mxGeometry>
        </mxCell>
        <mxCell id="iweTTG_6KrEZdTRcbMwR-14" value="" style="html=1;points=[[0,0,0,0,5],[0,1,0,0,-5],[1,0,0,0,5],[1,1,0,0,-5]];perimeter=orthogonalPerimeter;outlineConnect=0;targetShapes=umlLifeline;portConstraint=eastwest;newEdgeStyle={&quot;curved&quot;:0,&quot;rounded&quot;:0};" parent="1" vertex="1">
          <mxGeometry x="89" y="80" width="10" height="70" as="geometry" />
        </mxCell>
        <mxCell id="iweTTG_6KrEZdTRcbMwR-15" value="Search ServiceRequest" style="html=1;verticalAlign=bottom;endArrow=block;curved=0;rounded=0;" parent="1" source="iweTTG_6KrEZdTRcbMwR-32" target="iweTTG_6KrEZdTRcbMwR-30" edge="1">
          <mxGeometry relative="1" as="geometry">
            <mxPoint x="709" y="503" as="sourcePoint" />
            <mxPoint x="299" y="503" as="targetPoint" />
            <Array as="points">
              <mxPoint x="644" y="503" />
            </Array>
            <mxPoint as="offset" />
          </mxGeometry>
        </mxCell>
        <mxCell id="iweTTG_6KrEZdTRcbMwR-16" value="return" style="html=1;verticalAlign=bottom;endArrow=open;dashed=1;endSize=8;curved=0;rounded=0;" parent="1" source="iweTTG_6KrEZdTRcbMwR-30" target="iweTTG_6KrEZdTRcbMwR-32" edge="1">
          <mxGeometry relative="1" as="geometry">
            <mxPoint x="709" y="533" as="targetPoint" />
            <mxPoint x="299" y="533" as="sourcePoint" />
            <Array as="points">
              <mxPoint x="324" y="533" />
            </Array>
          </mxGeometry>
        </mxCell>
        <mxCell id="iweTTG_6KrEZdTRcbMwR-17" value="" style="endArrow=none;dashed=1;html=1;rounded=0;entryX=0.5;entryY=1;entryDx=0;entryDy=0;" parent="1" source="iweTTG_6KrEZdTRcbMwR-24" target="iweTTG_6KrEZdTRcbMwR-18" edge="1">
          <mxGeometry width="50" height="50" relative="1" as="geometry">
            <mxPoint x="304" y="450" as="sourcePoint" />
            <mxPoint x="304" y="150" as="targetPoint" />
          </mxGeometry>
        </mxCell>
        <mxCell id="iweTTG_6KrEZdTRcbMwR-18" value="" style="html=1;points=[[0,0,0,0,5],[0,1,0,0,-5],[1,0,0,0,5],[1,1,0,0,-5]];perimeter=orthogonalPerimeter;outlineConnect=0;targetShapes=umlLifeline;portConstraint=eastwest;newEdgeStyle={&quot;curved&quot;:0,&quot;rounded&quot;:0};" parent="1" vertex="1">
          <mxGeometry x="299" y="170" width="10" height="70" as="geometry" />
        </mxCell>
        <mxCell id="iweTTG_6KrEZdTRcbMwR-19" value="" style="endArrow=none;dashed=1;html=1;rounded=0;entryX=0.5;entryY=1;entryDx=0;entryDy=0;" parent="1" target="iweTTG_6KrEZdTRcbMwR-20" edge="1">
          <mxGeometry width="50" height="50" relative="1" as="geometry">
            <mxPoint x="94" y="440" as="sourcePoint" />
            <mxPoint x="94" y="180" as="targetPoint" />
          </mxGeometry>
        </mxCell>
        <mxCell id="iweTTG_6KrEZdTRcbMwR-20" value="" style="html=1;points=[[0,0,0,0,5],[0,1,0,0,-5],[1,0,0,0,5],[1,1,0,0,-5]];perimeter=orthogonalPerimeter;outlineConnect=0;targetShapes=umlLifeline;portConstraint=eastwest;newEdgeStyle={&quot;curved&quot;:0,&quot;rounded&quot;:0};" parent="1" vertex="1">
          <mxGeometry x="89" y="350" width="10" height="70" as="geometry" />
        </mxCell>
        <mxCell id="iweTTG_6KrEZdTRcbMwR-21" value="" style="endArrow=none;dashed=1;html=1;rounded=0;entryX=0.5;entryY=1;entryDx=0;entryDy=0;" parent="1" source="iweTTG_6KrEZdTRcbMwR-30" target="iweTTG_6KrEZdTRcbMwR-22" edge="1">
          <mxGeometry width="50" height="50" relative="1" as="geometry">
            <mxPoint x="304" y="620" as="sourcePoint" />
            <mxPoint x="304" y="250" as="targetPoint" />
          </mxGeometry>
        </mxCell>
        <mxCell id="iweTTG_6KrEZdTRcbMwR-22" value="" style="html=1;points=[[0,0,0,0,5],[0,1,0,0,-5],[1,0,0,0,5],[1,1,0,0,-5]];perimeter=orthogonalPerimeter;outlineConnect=0;targetShapes=umlLifeline;portConstraint=eastwest;newEdgeStyle={&quot;curved&quot;:0,&quot;rounded&quot;:0};" parent="1" vertex="1">
          <mxGeometry x="299" y="350" width="10" height="70" as="geometry" />
        </mxCell>
        <mxCell id="iweTTG_6KrEZdTRcbMwR-23" value="" style="endArrow=none;dashed=1;html=1;rounded=0;entryX=0.5;entryY=1;entryDx=0;entryDy=0;" parent="1" source="iweTTG_6KrEZdTRcbMwR-22" target="iweTTG_6KrEZdTRcbMwR-24" edge="1">
          <mxGeometry width="50" height="50" relative="1" as="geometry">
            <mxPoint x="304" y="350" as="sourcePoint" />
            <mxPoint x="304" y="250" as="targetPoint" />
          </mxGeometry>
        </mxCell>
        <mxCell id="iweTTG_6KrEZdTRcbMwR-24" value="" style="html=1;points=[[0,0,0,0,5],[0,1,0,0,-5],[1,0,0,0,5],[1,1,0,0,-5]];perimeter=orthogonalPerimeter;outlineConnect=0;targetShapes=umlLifeline;portConstraint=eastwest;newEdgeStyle={&quot;curved&quot;:0,&quot;rounded&quot;:0};" parent="1" vertex="1">
          <mxGeometry x="299" y="260" width="10" height="70" as="geometry" />
        </mxCell>
        <mxCell id="iweTTG_6KrEZdTRcbMwR-25" value="" style="endArrow=none;dashed=1;html=1;rounded=0;entryX=0.5;entryY=1;entryDx=0;entryDy=0;" parent="1" source="iweTTG_6KrEZdTRcbMwR-28" target="iweTTG_6KrEZdTRcbMwR-26" edge="1">
          <mxGeometry width="50" height="50" relative="1" as="geometry">
            <mxPoint x="519" y="620" as="sourcePoint" />
            <mxPoint x="519" y="30" as="targetPoint" />
          </mxGeometry>
        </mxCell>
        <mxCell id="iweTTG_6KrEZdTRcbMwR-26" value="" style="html=1;points=[[0,0,0,0,5],[0,1,0,0,-5],[1,0,0,0,5],[1,1,0,0,-5]];perimeter=orthogonalPerimeter;outlineConnect=0;targetShapes=umlLifeline;portConstraint=eastwest;newEdgeStyle={&quot;curved&quot;:0,&quot;rounded&quot;:0};" parent="1" vertex="1">
          <mxGeometry x="514" y="170" width="10" height="70" as="geometry" />
        </mxCell>
        <mxCell id="iweTTG_6KrEZdTRcbMwR-27" value="" style="endArrow=none;dashed=1;html=1;rounded=0;entryX=0.5;entryY=1;entryDx=0;entryDy=0;" parent="1" target="iweTTG_6KrEZdTRcbMwR-28" edge="1">
          <mxGeometry width="50" height="50" relative="1" as="geometry">
            <mxPoint x="519" y="440" as="sourcePoint" />
            <mxPoint x="504" y="270" as="targetPoint" />
          </mxGeometry>
        </mxCell>
        <mxCell id="iweTTG_6KrEZdTRcbMwR-28" value="" style="html=1;points=[[0,0,0,0,5],[0,1,0,0,-5],[1,0,0,0,5],[1,1,0,0,-5]];perimeter=orthogonalPerimeter;outlineConnect=0;targetShapes=umlLifeline;portConstraint=eastwest;newEdgeStyle={&quot;curved&quot;:0,&quot;rounded&quot;:0};" parent="1" vertex="1">
          <mxGeometry x="514" y="260" width="10" height="70" as="geometry" />
        </mxCell>
        <mxCell id="iweTTG_6KrEZdTRcbMwR-29" value="" style="endArrow=none;dashed=1;html=1;rounded=0;entryX=0.5;entryY=1;entryDx=0;entryDy=0;" parent="1" target="iweTTG_6KrEZdTRcbMwR-30" edge="1">
          <mxGeometry width="50" height="50" relative="1" as="geometry">
            <mxPoint x="304" y="571" as="sourcePoint" />
            <mxPoint x="304" y="451" as="targetPoint" />
          </mxGeometry>
        </mxCell>
        <mxCell id="iweTTG_6KrEZdTRcbMwR-30" value="" style="html=1;points=[[0,0,0,0,5],[0,1,0,0,-5],[1,0,0,0,5],[1,1,0,0,-5]];perimeter=orthogonalPerimeter;outlineConnect=0;targetShapes=umlLifeline;portConstraint=eastwest;newEdgeStyle={&quot;curved&quot;:0,&quot;rounded&quot;:0};" parent="1" vertex="1">
          <mxGeometry x="299" y="483" width="10" height="70" as="geometry" />
        </mxCell>
        <mxCell id="iweTTG_6KrEZdTRcbMwR-31" value="" style="endArrow=none;dashed=1;html=1;rounded=0;entryX=0.5;entryY=1;entryDx=0;entryDy=0;" parent="1" target="iweTTG_6KrEZdTRcbMwR-32" edge="1">
          <mxGeometry width="50" height="50" relative="1" as="geometry">
            <mxPoint x="734" y="571" as="sourcePoint" />
            <mxPoint x="734" y="61" as="targetPoint" />
          </mxGeometry>
        </mxCell>
        <mxCell id="iweTTG_6KrEZdTRcbMwR-32" value="" style="html=1;points=[[0,0,0,0,5],[0,1,0,0,-5],[1,0,0,0,5],[1,1,0,0,-5]];perimeter=orthogonalPerimeter;outlineConnect=0;targetShapes=umlLifeline;portConstraint=eastwest;newEdgeStyle={&quot;curved&quot;:0,&quot;rounded&quot;:0};" parent="1" vertex="1">
          <mxGeometry x="729" y="483" width="10" height="70" as="geometry" />
        </mxCell>
        <mxCell id="iweTTG_6KrEZdTRcbMwR-33" value="Search Task" style="html=1;verticalAlign=bottom;endArrow=block;curved=0;rounded=0;entryX=0;entryY=0;entryDx=0;entryDy=5;entryPerimeter=0;" parent="1" source="iweTTG_6KrEZdTRcbMwR-20" edge="1">
          <mxGeometry relative="1" as="geometry">
            <mxPoint x="99" y="370" as="sourcePoint" />
            <mxPoint x="289" y="370" as="targetPoint" />
            <Array as="points">
              <mxPoint x="224" y="370" />
              <mxPoint x="254" y="370" />
            </Array>
          </mxGeometry>
        </mxCell>
        <mxCell id="iweTTG_6KrEZdTRcbMwR-34" value="return" style="html=1;verticalAlign=bottom;endArrow=open;dashed=1;endSize=8;curved=0;rounded=0;" parent="1" source="iweTTG_6KrEZdTRcbMwR-22" target="iweTTG_6KrEZdTRcbMwR-20" edge="1">
          <mxGeometry relative="1" as="geometry">
            <mxPoint x="94" y="400" as="targetPoint" />
            <mxPoint x="289" y="400" as="sourcePoint" />
            <Array as="points">
              <mxPoint x="194" y="400" />
            </Array>
          </mxGeometry>
        </mxCell>
        <mxCell id="iweTTG_6KrEZdTRcbMwR-35" value="Search Task" style="html=1;verticalAlign=bottom;endArrow=block;curved=0;rounded=0;" parent="1" source="iweTTG_6KrEZdTRcbMwR-26" target="iweTTG_6KrEZdTRcbMwR-18" edge="1">
          <mxGeometry relative="1" as="geometry">
            <mxPoint x="499" y="190" as="sourcePoint" />
            <mxPoint x="324" y="190" as="targetPoint" />
            <Array as="points">
              <mxPoint x="494" y="190" />
            </Array>
          </mxGeometry>
        </mxCell>
        <mxCell id="iweTTG_6KrEZdTRcbMwR-36" value="return" style="html=1;verticalAlign=bottom;endArrow=open;dashed=1;endSize=8;curved=0;rounded=0;" parent="1" source="iweTTG_6KrEZdTRcbMwR-18" target="iweTTG_6KrEZdTRcbMwR-26" edge="1">
          <mxGeometry relative="1" as="geometry">
            <mxPoint x="514" y="220" as="targetPoint" />
            <mxPoint x="309" y="220" as="sourcePoint" />
            <Array as="points">
              <mxPoint x="354" y="220" />
            </Array>
          </mxGeometry>
        </mxCell>
        <mxCell id="iweTTG_6KrEZdTRcbMwR-37" value="Update Task" style="html=1;verticalAlign=bottom;endArrow=block;curved=0;rounded=0;" parent="1" source="iweTTG_6KrEZdTRcbMwR-28" target="iweTTG_6KrEZdTRcbMwR-24" edge="1">
          <mxGeometry relative="1" as="geometry">
            <mxPoint x="499" y="279.9999999999999" as="sourcePoint" />
            <mxPoint x="314" y="280" as="targetPoint" />
            <Array as="points">
              <mxPoint x="484" y="280" />
            </Array>
            <mxPoint as="offset" />
          </mxGeometry>
        </mxCell>
        <mxCell id="iweTTG_6KrEZdTRcbMwR-38" value="return" style="html=1;verticalAlign=bottom;endArrow=open;dashed=1;endSize=8;curved=0;rounded=0;" parent="1" source="iweTTG_6KrEZdTRcbMwR-24" target="iweTTG_6KrEZdTRcbMwR-28" edge="1">
          <mxGeometry relative="1" as="geometry">
            <mxPoint x="499" y="310" as="targetPoint" />
            <mxPoint x="299" y="310" as="sourcePoint" />
            <Array as="points">
              <mxPoint x="324" y="310.0000000000001" />
            </Array>
          </mxGeometry>
        </mxCell>
        <mxCell id="iweTTG_6KrEZdTRcbMwR-39" value="" style="line;strokeWidth=1;fillColor=none;align=left;verticalAlign=middle;spacingTop=-1;spacingLeft=3;spacingRight=3;rotatable=0;labelPosition=right;points=[];portConstraint=eastwest;strokeColor=inherit;" parent="1" vertex="1">
          <mxGeometry x="4" y="450" width="820" height="8" as="geometry" />
        </mxCell>
      </root>
    </mxGraphModel>
  </diagram>
</mxfile>
